<svg xmlns="http://www.w3.org/2000/svg" xmlns:xlink="http://www.w3.org/1999/xlink" width="800" height="73" viewBox="0 0 800 73">
    <path fill="currentColor" d="M182.425 47.268h-19.854l9.828-25.625 10.026 25.625zm-3.789-42.113l-.003-.008A1.979 1.979 0 0 0 176.84 4l-8.439.005a1.983 1.983 0 0 0-1.792 1.149l-25.402 62.141c-.298.645-.272 1.322.072 1.856.347.54.967.849 1.699.849h8.168c.733 0 1.374-.21 1.903-.626.43-.34.776-.811.994-1.357l4.548-9.985h27.818l4.551 9.991c.368.732.72 1.193 1.14 1.496.455.328 1.014.481 1.756.481h8.166c.734 0 1.353-.31 1.7-.849.344-.534.37-1.21.076-1.849l-25.16-62.147z"/>
    <g transform="translate(0 2)">
        <path fill="currentColor" d="M642.697.592h-8.654c-1.092 0-1.98.888-1.98 1.98v38.851l.007 4.142-30.807-43.684c-.037-.041-.916-.999-1.931-.999h-8.654c-.13 0-.261.014-.39.041a1.54 1.54 0 0 0-.204.058l-.079.025h-.001a.817.817 0 0 0-.087.03 1.504 1.504 0 0 0-.16.081 1.58 1.58 0 0 0-.187.105l-.044.032c-.52.359-.829.926-.829 1.516v63.308c0 1.055.926 1.981 1.981 1.981h8.561c1.092 0 1.98-.889 1.98-1.981v-40.45l-.006-2.732 30.88 43.459c.037.058.916 1.414 1.952 1.414l8.686-.002c.121-.004.241-.013.357-.037.084-.017.162-.044.242-.071l-.064-.183.113.166a.703.703 0 0 0 .078-.024c.05-.022.097-.047.145-.073l-.095-.169.152.137c.052-.026.104-.053.154-.088l.049-.037c.519-.367.817-.916.817-1.506V2.572c0-1.055-.926-1.98-1.982-1.98zM51.413 50.986l-.003-.002c-.602-.603-1.746-.771-2.61-.014-4.359 3.53-9.16 5.319-14.271 5.319-5.699 0-10.994-2.272-14.91-6.396-3.848-4.052-5.967-9.429-5.967-15.14 0-12.183 9.129-21.725 20.783-21.725 5.156 0 10.389 2.005 14.35 5.494.422.422.904.641 1.399.621.462-.015.888-.233 1.229-.623l5.736-5.924c.408-.408.624-.929.609-1.466-.016-.541-.269-1.057-.711-1.451C50.264 3.596 43.203.882 34.153.882 15.321.882 0 16.203 0 35.035c0 9.14 3.545 17.691 9.981 24.079C16.406 65.489 24.99 69 34.153 69c8.855 0 16.807-3.174 22.996-9.182.412-.412.656-1.03.637-1.612-.016-.484-.213-.913-.541-1.2l-5.832-6.02"/>
    </g>
    <path fill="currentColor" d="M127.005 4h-8.716c-1.1 0-1.995.885-1.995 1.973V30.62H85.8V5.973C85.8 4.885 84.906 4 83.806 4h-8.811C73.933 4 73 4.922 73 5.973v62.053c0 1.051.933 1.974 1.995 1.974h8.81c1.1 0 1.996-.886 1.996-1.974V42.35h30.493v25.677c0 1.088.895 1.974 1.995 1.974h8.716c1.062 0 1.995-.923 1.995-1.974V5.973C129 4.922 128.067 4 127.005 4M253.278 24.534c0 5.077-4.211 9.367-9.194 9.367h-15.267V15.635h15.267c4.983 0 9.194 4.075 9.194 8.899zM266 24.347C266 13.127 256.635 4 245.127 4H218C216.897 4 216 4.885 216 5.973v62.053c0 1.088.897 1.974 1.999 1.974h8.726c1.065 0 1.998-.923 1.998-1.974V44.318h10.212l12.56 24.731c.114.224.57.951 1.694.951h9.96c.78 0 1.431-.338 1.787-.926.366-.606.366-1.402-.002-2.077l-12.893-23.619C260.658 39.874 266 32.6 266 24.348zM324.03 58.365h-27.494V5.973c0-1.051-.92-1.973-1.969-1.973h-8.598C284.883 4 284 4.885 284 5.973v62.053c0 1.088.883 1.974 1.97 1.974h38.06c1.087 0 1.97-.886 1.97-1.974v-7.685c0-1.09-.883-1.976-1.97-1.976M350.974 4h-8.948C340.947 4 340 4.922 340 5.973v62.053c0 1.051.947 1.974 2.026 1.974h8.948c1.08 0 2.026-.923 2.026-1.974V5.973C353 4.922 352.054 4 350.974 4M417.034 4h-41.068A1.972 1.972 0 0 0 374 5.973v62.053c0 1.088.882 1.974 1.966 1.974h41.068A1.972 1.972 0 0 0 419 68.026v-7.685c0-1.09-.882-1.976-1.966-1.976H386.52V42.349h25.942a1.972 1.972 0 0 0 1.965-1.974v-7.78c0-1.052-.918-1.974-1.965-1.974H386.52V15.635h30.515A1.973 1.973 0 0 0 419 13.66V5.973A1.972 1.972 0 0 0 417.034 4M510.036 4l-50.073.022A1.97 1.97 0 0 0 458 5.996v7.688a1.97 1.97 0 0 0 1.963 1.973l18.737-.022v52.391c0 1.051.916 1.974 1.963 1.974h8.673c1.047 0 1.962-.923 1.962-1.974v-52.39h18.738A1.972 1.972 0 0 0 512 13.66V5.973A1.97 1.97 0 0 0 510.036 4M716.12 37.135h-17.986c-1.143 0-1.973.833-1.973 1.98v7.43c0 1.075.848 1.887 1.973 1.887h7.302v7.667c-1.806.723-5.82 2.288-10.956 2.288-11.517 0-20.886-9.572-20.886-21.339 0-11.924 9.328-21.622 20.792-21.622 5.184 0 10.032 1.868 14.019 5.404.919.821 1.878.82 2.701-.011l5.806-6.11c.397-.396.6-.917.572-1.463-.026-.526-.262-1.04-.676-1.455C710.186 6.123 702.024 3 693.825 3c-9.068 0-17.571 3.545-23.945 9.978-6.371 6.433-9.88 15.015-9.88 24.163 0 9.132 3.509 17.664 9.882 24.022 6.355 6.344 14.86 9.837 23.943 9.837 13.484 0 23.238-6.08 23.347-6.15.542-.409.828-.982.828-1.661V39.115c0-1.072-.86-1.98-1.88-1.98M765.063 15.596c5.69 0 11.078 2.255 15.17 6.351 4.084 4.091 6.334 9.47 6.334 15.147 0 11.75-9.646 21.31-21.504 21.31-11.805 0-21.41-9.56-21.41-21.31 0-11.854 9.605-21.498 21.41-21.498zm24.196-2.631C782.828 6.54 774.235 3 765.063 3c-9.166 0-17.742 3.54-24.15 9.965C734.52 19.379 731 27.948 731 37.094c0 9.135 3.52 17.671 9.915 24.036 6.394 6.365 14.97 9.87 24.148 9.87 9.184 0 17.776-3.505 24.196-9.87C795.683 54.76 800 46.223 800 37.094c0-9.14-4.317-17.71-10.741-24.13zM554.424 47.267h-19.852l9.827-25.625 10.025 25.625zm-3.788-42.113l-.004-.008A1.977 1.977 0 0 0 548.84 4l-8.439.006c-.765 0-1.467.447-1.793 1.148l-25.4 62.141c-.299.644-.273 1.322.071 1.857.347.54.966.848 1.7.848h8.167c.736 0 1.375-.21 1.902-.626.431-.338.776-.81.996-1.357l4.547-9.986h27.818l4.552 9.993c.367.733.719 1.195 1.139 1.497.456.326 1.014.479 1.756.479h8.166c.734 0 1.353-.308 1.7-.848.344-.535.371-1.213.075-1.849l-25.16-62.149z"/>
</svg>
